<?xml version="1.0" encoding="utf-8"?>
<!-- Generator: Adobe Illustrator 16.0.0, SVG Export Plug-In . SVG Version: 6.00 Build 0)  -->
<svg version="1.2" baseProfile="tiny" id="Layer_1" xmlns="http://www.w3.org/2000/svg" xmlns:xlink="http://www.w3.org/1999/xlink"
	 x="0px" y="0px" width="960px" height="560px" viewBox="0 0 960 560" xml:space="preserve">
<g>
	<path fill="#FFFF00" d="M80.618,312.41c0,5.49-3.128,10.16-9.385,14.01c-6.257,3.85-14.021,5.773-23.289,5.773
		c-9.363,0-17.171-1.924-23.427-5.773c-6.257-3.85-9.385-8.52-9.385-14.01v-21.867h22.802v30.387c0,5.175,3.337,7.762,10.011,7.762
		c6.58,0,9.872-2.587,9.872-7.762v-23.571c0-6.437-2.272-12.084-6.813-16.944l-28.502-30.197
		c-4.914-5.237-7.369-11.043-7.369-17.417v-18.459c0-5.491,3.128-10.16,9.385-14.01c6.256-3.849,14.064-5.774,23.427-5.774
		c9.268,0,17.032,1.926,23.289,5.774c6.256,3.85,9.385,8.519,9.385,14.01v21.867H57.816v-30.386c0-5.174-3.292-7.762-9.872-7.762
		c-6.674,0-10.011,2.588-10.011,7.762v22.719c0,6.375,2.271,11.991,6.813,16.85l28.502,30.197
		c4.912,5.239,7.369,11.076,7.369,17.512V312.41z"/>
	<path fill="#FFFF00" d="M167.515,331.247h-29.336v-90.496c0-4.922-2.735-7.383-8.203-7.383c-3.615,0-7.045,1.105-10.289,3.313
		v91.063h7.23v3.503H90.35v-3.503h7.23V199.005h-7.23v-3.502h29.336v37.675c4.171-2.461,9.685-3.692,16.545-3.692
		c16.128,0,24.192,5.933,24.192,17.796v80.461h7.091V331.247z"/>
	<path fill="#FFFF00" d="M240.508,312.41c0,5.553-3.037,10.239-9.106,14.057c-6.072,3.818-13.743,5.727-23.01,5.727
		c-9.27,0-16.962-1.908-23.08-5.727c-6.118-3.817-9.176-8.504-9.176-14.057v-63.14c0-5.552,3.059-10.238,9.176-14.057
		c6.118-3.817,13.81-5.727,23.08-5.727c9.268,0,16.938,1.91,23.01,5.727c6.07,3.819,9.106,8.505,9.106,14.057V312.41z
		 M218.262,320.93v-80.179c0-5.174-3.291-7.762-9.871-7.762c-6.674,0-10.011,2.588-10.011,7.762v80.179
		c0,5.175,3.337,7.762,10.011,7.762C214.971,328.691,218.262,326.104,218.262,320.93z"/>
	<path fill="#FFFF00" d="M349.511,233.936h-7.091l-13.069,97.312h-21.69l-9.732-73.457l-7.091,73.457h-21.55l-13.208-97.312h-7.091
		v-3.502h36.149v3.502h-7.091l7.925,76.392l8.064-79.894h20.994l10.01,79.894l9.455-76.392h-7.23v-3.502h22.246V233.936z"/>
	<path fill="#FFFF00" d="M429.735,331.247h-28.78l-18.492-49.413v45.91h7.23v3.503h-36.566v-3.503h7.23V199.005h-7.23v-3.502h29.336
		v79.705l28.502-41.272h-7.369v-3.502h21.689v3.502h-7.23l-20.994,31.049l25.026,62.76h7.647V331.247z"/>
	<path fill="#FFFF00" d="M506.065,331.247h-29.336v-2.745c-4.171,2.461-9.502,3.691-15.989,3.691
		c-15.759,0-23.636-5.931-23.636-17.796v-22.34c0-12.496,10.936-18.743,32.813-18.743h6.813v-32.563
		c0-5.174-2.781-7.762-8.342-7.762c-5.47,0-8.203,2.588-8.203,7.762v20.542h-22.246v-12.022c0-5.995,2.757-10.792,8.272-14.388
		c5.514-3.597,12.906-5.396,22.176-5.396c9.361,0,16.775,1.799,22.245,5.396c5.469,3.597,8.203,8.394,8.203,14.388v78.474h7.23
		V331.247z M476.729,325v-48.183h-6.535c-7.23,0-10.845,2.556-10.845,7.667v36.445c0,4.922,2.548,7.383,7.646,7.383
		C470.24,328.313,473.483,327.209,476.729,325z"/>
	<path fill="#FFFF00" d="M556.118,331.247h-7.091c-9.27,0-16.94-1.925-23.01-5.774c-6.072-3.849-9.107-8.52-9.107-14.01v-77.527
		h-7.229v-3.502h7.229v-28.114l22.106-6.816v34.93h15.989v3.502h-15.989v86.047c0,5.176,3.337,7.762,10.011,7.762h7.091V331.247z"/>
	<path fill="#FFFF00" d="M677.218,331.247h-71.186v-3.503h7.091V199.005h-7.091v-3.502h71.186v40.705h-22.802v-37.202h-18.491
		v58.785h26.973v3.502h-26.973v66.452h18.491v-37.201h22.802V331.247z"/>
	<path fill="#FFFF00" d="M759.526,331.247H730.19v-2.745c-4.171,2.461-9.502,3.691-15.989,3.691
		c-15.759,0-23.636-5.931-23.636-17.796v-22.34c0-12.496,10.936-18.743,32.813-18.743h6.813v-32.563
		c0-5.174-2.781-7.762-8.343-7.762c-5.47,0-8.203,2.588-8.203,7.762v20.542h-22.245v-12.022c0-5.995,2.757-10.792,8.272-14.388
		c5.514-3.597,12.906-5.396,22.176-5.396c9.361,0,16.776,1.799,22.246,5.396c5.468,3.597,8.203,8.394,8.203,14.388v78.474h7.229
		V331.247z M730.19,325v-48.183h-6.535c-7.229,0-10.845,2.556-10.845,7.667v36.445c0,4.922,2.549,7.383,7.647,7.383
		C723.701,328.313,726.944,327.209,730.19,325z"/>
	<path fill="#FFFF00" d="M828.905,312.41c0,5.617-2.735,10.286-8.203,14.01c-5.84,3.85-13.348,5.773-22.523,5.773
		c-9.177,0-16.685-1.908-22.524-5.727c-5.839-3.817-8.759-8.504-8.759-14.057v-12.022h22.246v20.542
		c0,5.175,3.011,7.762,9.037,7.762c5.746,0,8.62-2.587,8.62-7.762v-14.862c0-6.247-2.597-11.106-7.786-14.578l-23.358-15.713
		c-5.839-3.913-8.759-9.656-8.759-17.229v-9.277c0-5.616,2.826-10.318,8.481-14.104c5.652-3.786,13.069-5.68,22.245-5.68
		c9.177,0,16.591,1.894,22.246,5.68c5.652,3.787,8.48,8.488,8.48,14.104v12.022h-22.106v-20.542c0-5.174-2.874-7.762-8.62-7.762
		c-5.654,0-8.48,2.588-8.48,7.762v13.347c0,6.248,2.548,11.076,7.646,14.483l23.357,15.713c5.84,3.977,8.76,9.75,8.76,17.323V312.41
		z"/>
	<path fill="#FFFF00" d="M875.065,331.247h-36.428v-3.503h7.091v-93.809h-7.091v-3.502h29.337v97.311h7.091V331.247z
		 M867.975,218.79h-22.246v-23.287h22.246V218.79z"/>
	<path fill="#FFFF00" d="M958.068,331.247h-29.197v-90.496c0-4.922-2.781-7.383-8.343-7.383c-3.614,0-7.045,1.105-10.288,3.313
		v91.063h7.229v3.503h-36.566v-3.503h7.23v-93.809h-7.23v-3.502h29.337v2.745c4.171-2.461,9.685-3.692,16.545-3.692
		c16.128,0,24.192,5.933,24.192,17.796v80.461h7.091V331.247z"/>
</g>
<g>
</g>
<g>
</g>
<g>
</g>
<g>
</g>
<g>
</g>
<g>
</g>
<g>
</g>
<g>
</g>
<g>
</g>
<g>
</g>
<g>
</g>
<g>
</g>
<g>
</g>
<g>
</g>
<g>
</g>
</svg>
