<?xml version="1.0" encoding="utf-8"?>
<!-- Generator: Adobe Illustrator 16.0.0, SVG Export Plug-In . SVG Version: 6.00 Build 0)  -->
<svg version="1.2" baseProfile="tiny" id="Layer_1" xmlns="http://www.w3.org/2000/svg" xmlns:xlink="http://www.w3.org/1999/xlink"
	 x="0px" y="0px" width="960px" height="560px" viewBox="0 0 960 560" xml:space="preserve">
<g>
	<path fill="#FFFF00" d="M14.476,323.864c1.239,0.633,2.607,1.201,4.105,1.705c1.498,0.505,3.029,0.927,4.596,1.266
		c1.566,0.34,3.141,0.598,4.725,0.773c1.583,0.176,3.098,0.264,4.544,0.264c5.611,0,9.811-0.738,12.599-2.215
		c2.789-1.477,4.183-3.598,4.183-6.363c0-1.336-0.328-2.501-0.981-3.498c-0.654-0.996-1.67-1.928-3.046-2.795
		c-1.377-0.866-3.116-1.728-5.215-2.584c-2.1-0.855-4.579-1.822-7.436-2.9c-3.168-1.172-5.878-2.279-8.133-3.322
		c-2.255-1.042-4.097-2.109-5.525-3.199c-1.429-1.09-2.479-2.268-3.149-3.533c-0.671-1.266-1.007-2.707-1.007-4.324
		c0-2.039,0.637-3.867,1.911-5.484c1.273-1.617,2.995-2.993,5.164-4.131c2.169-1.137,4.707-2.009,7.617-2.619
		c2.908-0.609,6.016-0.914,9.32-0.914c5.817,0,10.688,0.551,14.613,1.652v5.168c-4.372-1.71-9.501-2.566-15.387-2.566
		c-2.204,0-4.278,0.182-6.222,0.545c-1.945,0.364-3.649,0.896-5.112,1.6c-1.463,0.703-2.617,1.577-3.459,2.619
		c-0.844,1.043-1.265,2.256-1.265,3.639c0,1.313,0.284,2.443,0.852,3.393s1.479,1.846,2.737,2.689
		c1.256,0.844,2.908,1.683,4.957,2.514c2.047,0.832,4.552,1.788,7.513,2.865c3.098,1.125,5.8,2.221,8.107,3.287
		c2.306,1.067,4.225,2.18,5.757,3.34c1.531,1.16,2.676,2.391,3.434,3.691c0.757,1.301,1.136,2.748,1.136,4.342
		c0,2.203-0.603,4.144-1.808,5.818c-1.205,1.676-2.892,3.064-5.06,4.166c-2.169,1.103-4.75,1.934-7.746,2.496
		c-2.995,0.563-6.283,0.844-9.862,0.844c-1.171,0-2.565-0.065-4.183-0.193c-1.619-0.129-3.253-0.316-4.906-0.563
		s-3.227-0.539-4.725-0.879c-1.498-0.339-2.711-0.708-3.64-1.107V323.864z"/>
	<path fill="#FFFF00" d="M106.337,331.247v-21.164c0-4.03-1.067-7.001-3.201-8.912c-2.135-1.91-5.457-2.865-9.966-2.865
		c-2.135,0-4.166,0.294-6.093,0.879c-1.928,0.586-3.615,1.43-5.061,2.531c-1.446,1.103-2.6,2.443-3.459,4.025
		c-0.861,1.582-1.291,3.37-1.291,5.361v20.145h-6.609V277.95h6.609v23.52h0.207c4.131-4.711,10.051-7.066,17.763-7.066
		c5.886,0,10.31,1.23,13.271,3.691c2.96,2.461,4.44,6.095,4.44,10.898v22.254H106.337z"/>
	<path fill="#FFFF00" d="M150.486,332.091c-3.924,0-7.445-0.445-10.56-1.336c-3.116-0.891-5.775-2.149-7.978-3.779
		c-2.204-1.629-3.891-3.58-5.061-5.854c-1.17-2.272-1.755-4.793-1.755-7.559c0-3,0.62-5.683,1.859-8.051
		c1.239-2.367,3.003-4.377,5.292-6.029c2.289-1.652,5.052-2.912,8.288-3.779c3.235-0.866,6.85-1.301,10.843-1.301
		c3.821,0,7.263,0.428,10.328,1.283c3.063,0.856,5.662,2.092,7.797,3.709c2.134,1.617,3.77,3.586,4.905,5.906
		c1.136,2.32,1.704,4.957,1.704,7.91c0,2.813-0.594,5.374-1.781,7.682c-1.188,2.309-2.884,4.295-5.086,5.959
		c-2.203,1.665-4.888,2.953-8.055,3.867C158.059,331.634,154.479,332.091,150.486,332.091z M151.002,298.306
		c-2.892,0-5.508,0.34-7.849,1.02c-2.341,0.681-4.346,1.67-6.016,2.971c-1.67,1.301-2.952,2.896-3.847,4.781
		c-0.896,1.887-1.343,4.025-1.343,6.416c0,2.25,0.447,4.277,1.343,6.082c0.895,1.806,2.16,3.353,3.795,4.641
		c1.635,1.289,3.623,2.28,5.964,2.971c2.34,0.691,4.957,1.037,7.849,1.037c2.96,0,5.577-0.334,7.849-1.002s4.2-1.64,5.783-2.918
		c1.583-1.277,2.78-2.842,3.589-4.693c0.809-1.851,1.213-3.96,1.213-6.328c0-4.852-1.584-8.561-4.75-11.127
		C161.416,299.589,156.889,298.306,151.002,298.306z"/>
	<path fill="#FFFF00" d="M237.235,331.247h-6.609l-11.205-26.438c-0.345-0.82-0.62-1.886-0.826-3.199h-0.207
		c-0.069,0.352-0.181,0.786-0.336,1.301c-0.155,0.516-0.405,1.125-0.749,1.828l-12.341,26.508h-6.455l-16.007-36h7.074
		l11.619,27.914c0.343,0.821,0.584,1.863,0.723,3.129h0.413c0.069-0.422,0.181-0.901,0.335-1.441
		c0.155-0.539,0.37-1.112,0.646-1.723l12.806-27.879h5.473l11.463,27.949c0.31,0.797,0.568,1.841,0.774,3.129h0.413
		c-0.035-0.398,0.034-0.861,0.207-1.389c0.172-0.527,0.396-1.107,0.671-1.74l11.618-27.949h6.661L237.235,331.247z"/>
	<path fill="#FFFF00" d="M294.604,331.247l-24.321-17.543h-0.207v17.543h-6.609V277.95h6.609v34.066h0.207l23.082-16.77h8.623
		l-24.785,17.402l26.748,18.598H294.604z"/>
	<path fill="#FFFF00" d="M343.658,331.247v-6.398h-0.207c-1.722,2.298-4.071,4.078-7.048,5.344
		c-2.978,1.266-6.343,1.898-10.095,1.898c-2.548,0-4.846-0.246-6.894-0.738c-2.048-0.492-3.787-1.189-5.215-2.092
		c-1.429-0.901-2.53-1.986-3.305-3.252s-1.162-2.659-1.162-4.184c0-3.257,1.479-5.854,4.44-7.787
		c2.96-1.934,7.436-3.193,13.426-3.779l16.059-1.582c0-6.913-3.942-10.371-11.825-10.371c-6.163,0-11.876,1.535-17.143,4.605v-4.922
		c1.101-0.539,2.349-1.024,3.744-1.459c1.394-0.434,2.866-0.809,4.415-1.125c1.549-0.316,3.141-0.563,4.776-0.738
		c1.635-0.176,3.228-0.264,4.776-0.264c5.887,0,10.335,1.125,13.348,3.375c3.012,2.25,4.518,5.603,4.518,10.055v23.414H343.658z
		 M330.026,313.774c-2.375,0.234-4.407,0.527-6.093,0.879c-1.687,0.352-3.081,0.826-4.183,1.424
		c-1.102,0.598-1.91,1.336-2.427,2.215c-0.516,0.879-0.774,1.964-0.774,3.252c0,0.962,0.249,1.852,0.749,2.672
		c0.499,0.821,1.222,1.529,2.169,2.127c0.946,0.598,2.099,1.061,3.459,1.389c1.359,0.329,2.9,0.492,4.622,0.492
		c2.34,0,4.492-0.304,6.455-0.914c1.962-0.609,3.657-1.453,5.086-2.531c1.428-1.077,2.547-2.367,3.356-3.867
		c0.809-1.499,1.213-3.129,1.213-4.887v-3.551L330.026,313.774z"/>
	<path fill="#FFFF00" d="M388.892,330.825c-2.272,0.773-4.751,1.16-7.436,1.16c-8.538,0-12.806-3.352-12.806-10.055v-22.746h-9.294
		v-3.938h9.294v-9.07l6.609-1.477v10.547h13.632v3.938h-13.632v22.043c0,2.438,0.585,4.196,1.756,5.273
		c1.17,1.078,3.15,1.617,5.938,1.617c2.065,0,4.044-0.422,5.938-1.266V330.825z"/>
	<path fill="#FFFF00" d="M429.839,331.247v-50.414h36.094v4.289h-29.226v18.492h27.057v4.219h-27.057v19.16h30.878v4.254H429.839z"
		/>
	<path fill="#FFFF00" d="M512.405,331.247v-6.398h-0.206c-1.722,2.298-4.071,4.078-7.049,5.344s-6.343,1.898-10.095,1.898
		c-2.548,0-4.846-0.246-6.894-0.738c-2.049-0.492-3.787-1.189-5.215-2.092c-1.43-0.901-2.531-1.986-3.305-3.252
		s-1.162-2.659-1.162-4.184c0-3.257,1.479-5.854,4.44-7.787c2.96-1.934,7.436-3.193,13.426-3.779l16.059-1.582
		c0-6.913-3.942-10.371-11.824-10.371c-6.163,0-11.877,1.535-17.144,4.605v-4.922c1.102-0.539,2.35-1.024,3.744-1.459
		c1.394-0.434,2.865-0.809,4.414-1.125c1.55-0.316,3.142-0.563,4.776-0.738s3.228-0.264,4.776-0.264
		c5.887,0,10.336,1.125,13.349,3.375c3.012,2.25,4.518,5.603,4.518,10.055v23.414H512.405z M498.773,313.774
		c-2.375,0.234-4.407,0.527-6.093,0.879c-1.688,0.352-3.082,0.826-4.183,1.424c-1.103,0.598-1.91,1.336-2.428,2.215
		c-0.516,0.879-0.773,1.964-0.773,3.252c0,0.962,0.248,1.852,0.748,2.672c0.498,0.821,1.222,1.529,2.169,2.127
		c0.946,0.598,2.1,1.061,3.46,1.389c1.359,0.329,2.899,0.492,4.621,0.492c2.341,0,4.492-0.304,6.454-0.914
		c1.963-0.609,3.657-1.453,5.087-2.531c1.428-1.077,2.547-2.367,3.356-3.867c0.808-1.499,1.213-3.129,1.213-4.887v-3.551
		L498.773,313.774z"/>
	<path fill="#FFFF00" d="M531.925,324.778c0.998,0.54,2.082,1.02,3.253,1.441c1.17,0.422,2.375,0.786,3.614,1.09
		c1.239,0.305,2.486,0.533,3.744,0.686c1.256,0.153,2.452,0.229,3.589,0.229c7.849,0,11.772-2.004,11.772-6.012
		c0-0.914-0.275-1.705-0.826-2.373s-1.343-1.277-2.375-1.828c-1.033-0.55-2.272-1.06-3.718-1.529
		c-1.446-0.469-3.081-0.961-4.905-1.477c-2.445-0.68-4.544-1.371-6.3-2.074s-3.201-1.471-4.338-2.303
		c-1.136-0.831-1.979-1.745-2.53-2.742c-0.551-0.996-0.826-2.127-0.826-3.393c0-1.594,0.508-3.011,1.523-4.254
		c1.015-1.242,2.384-2.297,4.105-3.164c1.721-0.866,3.709-1.529,5.964-1.986c2.254-0.457,4.621-0.686,7.1-0.686
		c4.578,0,8.572,0.586,11.979,1.758v4.746c-3.959-1.734-8.228-2.602-12.806-2.602c-1.652,0-3.158,0.141-4.518,0.422
		c-1.36,0.281-2.522,0.681-3.485,1.195c-0.965,0.516-1.713,1.131-2.247,1.846c-0.533,0.716-0.8,1.507-0.8,2.373
		c0,0.892,0.206,1.67,0.619,2.338s1.059,1.271,1.937,1.811c0.878,0.54,2.014,1.055,3.408,1.547s3.09,1.02,5.086,1.582
		c2.548,0.703,4.751,1.401,6.609,2.092c1.859,0.691,3.391,1.441,4.596,2.25s2.1,1.711,2.686,2.707
		c0.585,0.997,0.878,2.15,0.878,3.463c0,1.617-0.491,3.059-1.472,4.324c-0.981,1.266-2.342,2.333-4.079,3.199
		c-1.739,0.867-3.778,1.524-6.119,1.969c-2.342,0.444-4.889,0.668-7.643,0.668c-5.336,0-9.828-0.762-13.477-2.285V324.778z"/>
	<path fill="#FFFF00" d="M581.134,286.142c-1.274,0-2.376-0.304-3.305-0.914c-0.93-0.609-1.395-1.383-1.395-2.32
		c0-0.914,0.465-1.67,1.395-2.268c0.929-0.598,2.03-0.896,3.305-0.896c0.653,0,1.272,0.076,1.858,0.229
		c0.585,0.153,1.093,0.369,1.523,0.65c0.43,0.281,0.774,0.615,1.033,1.002c0.258,0.387,0.387,0.814,0.387,1.283
		c0,0.445-0.121,0.867-0.361,1.266c-0.241,0.399-0.586,0.744-1.033,1.037c-0.447,0.294-0.955,0.522-1.522,0.686
		C582.45,286.06,581.821,286.142,581.134,286.142z M577.88,331.247v-36h6.61v36H577.88z"/>
	<path fill="#FFFF00" d="M637.211,331.247v-20.742c0-8.133-4.338-12.199-13.013-12.199c-2.307,0-4.44,0.312-6.403,0.932
		c-1.962,0.621-3.658,1.482-5.086,2.584c-1.429,1.103-2.548,2.408-3.356,3.92c-0.81,1.512-1.213,3.146-1.213,4.904v20.602h-6.61v-36
		h6.61v6.258h0.206c3.925-4.733,9.828-7.102,17.711-7.102c5.784,0,10.189,1.278,13.22,3.832c3.028,2.555,4.544,6.246,4.544,11.074
		v21.938H637.211z"/>
</g>
<g>
</g>
<g>
</g>
<g>
</g>
<g>
</g>
<g>
</g>
<g>
</g>
<g>
</g>
<g>
</g>
<g>
</g>
<g>
</g>
<g>
</g>
<g>
</g>
<g>
</g>
<g>
</g>
<g>
</g>
</svg>
